<svg width="24" height="27" viewBox="0 0 24 27" fill="none" xmlns="http://www.w3.org/2000/svg">
<path d="M8.32961 14.956C8.24109 15.0538 8.17082 15.1701 8.12288 15.2983C8.07493 15.4265 8.05024 15.564 8.05024 15.7029C8.05024 15.8417 8.07493 15.9792 8.12288 16.1074C8.17082 16.2356 8.24109 16.352 8.32961 16.4498L11.1629 19.6057C11.2507 19.7043 11.3552 19.7826 11.4703 19.836C11.5854 19.8894 11.7088 19.9169 11.8335 19.9169C11.9582 19.9169 12.0816 19.8894 12.1967 19.836C12.3118 19.7826 12.4163 19.7043 12.5041 19.6057L15.3374 16.4498C15.5152 16.2517 15.6151 15.983 15.6151 15.7029C15.6151 15.4227 15.5152 15.1541 15.3374 14.956C15.1595 14.7579 14.9183 14.6466 14.6668 14.6466C14.4153 14.6466 14.1741 14.7579 13.9963 14.956L12.7779 16.3235V4.13108C12.7779 3.85208 12.6784 3.5845 12.5013 3.38722C12.3242 3.18993 12.084 3.0791 11.8335 3.0791C11.583 3.0791 11.3428 3.18993 11.1657 3.38722C10.9886 3.5845 10.8891 3.85208 10.8891 4.13108V16.3235L9.67072 14.956C9.58292 14.8574 9.47846 14.7791 9.36337 14.7257C9.24828 14.6723 9.12484 14.6448 9.00016 14.6448C8.87548 14.6448 8.75204 14.6723 8.63695 14.7257C8.52186 14.7791 8.41741 14.8574 8.32961 14.956ZM17.5002 10.443H15.6113C15.3608 10.443 15.1206 10.5538 14.9435 10.7511C14.7663 10.9484 14.6668 11.2159 14.6668 11.4949C14.6668 11.7739 14.7663 12.0415 14.9435 12.2388C15.1206 12.4361 15.3608 12.5469 15.6113 12.5469H17.5002C17.7506 12.5469 17.9909 12.6578 18.168 12.855C18.3451 13.0523 18.4446 13.3199 18.4446 13.5989V20.9628C18.4446 21.2418 18.3451 21.5093 18.168 21.7066C17.9909 21.9039 17.7506 22.0147 17.5002 22.0147H6.16683C5.91635 22.0147 5.67612 21.9039 5.49901 21.7066C5.32189 21.5093 5.22238 21.2418 5.22238 20.9628V13.5989C5.22238 13.3199 5.32189 13.0523 5.49901 12.855C5.67612 12.6578 5.91635 12.5469 6.16683 12.5469H8.05572C8.3062 12.5469 8.54642 12.4361 8.72354 12.2388C8.90066 12.0415 9.00016 11.7739 9.00016 11.4949C9.00016 11.2159 8.90066 10.9484 8.72354 10.7511C8.54642 10.5538 8.3062 10.443 8.05572 10.443H6.16683C5.41538 10.443 4.69471 10.7755 4.16336 11.3673C3.63201 11.9592 3.3335 12.7619 3.3335 13.5989V20.9628C3.3335 21.7998 3.63201 22.6025 4.16336 23.1944C4.69471 23.7862 5.41538 24.1187 6.16683 24.1187H17.5002C18.2516 24.1187 18.9723 23.7862 19.5036 23.1944C20.035 22.6025 20.3335 21.7998 20.3335 20.9628V13.5989C20.3335 12.7619 20.035 11.9592 19.5036 11.3673C18.9723 10.7755 18.2516 10.443 17.5002 10.443Z" fill="white"/>
</svg>
